<?xml version="1.0" standalone="no"?>
<!DOCTYPE svg PUBLIC "-//W3C//DTD SVG 20010904//EN"
 "http://www.w3.org/TR/2001/REC-SVG-20010904/DTD/svg10.dtd">
<svg version="1.0" xmlns="http://www.w3.org/2000/svg"
 width="1024.000000pt" height="1024.000000pt" viewBox="0 0 1024.000000 1024.000000"
 preserveAspectRatio="xMidYMid meet">

<g transform="translate(0.000000,1024.000000) scale(0.100000,-0.100000)"
fill="#000000" stroke="none">
<path d="M2930 5485 l0 -1975 1708 3 c1704 3 1707 3 1800 24 190 44 316 98
451 194 190 133 323 328 382 556 34 133 40 297 37 966 l-3 639 -1780 1 -1780
2 -3 388 -2 387 1785 0 1785 0 0 395 0 395 -2190 0 -2190 0 0 -1975z m3548
-657 c-5 -262 -7 -287 -28 -341 -39 -102 -99 -153 -208 -176 -38 -8 -410 -11
-1277 -11 l-1225 0 0 405 0 405 1371 0 1372 0 -5 -282z"/>
</g>
</svg>
